<svg width="32" height="36" viewBox="0 0 32 36" fill="none" xmlns="http://www.w3.org/2000/svg">
<path d="M30 20.8904C21.5785 19.1124 18.7231 15.9704 18.2975 5C18.2975 16.193 13.8999 18.5158 6 20.8904C15.551 20.8904 16.8786 26.5885 18.2975 34C19.2443 25.2942 20.9388 20.8904 30 20.8904Z" stroke="#466BE0" stroke-width="4" stroke-linecap="round" stroke-linejoin="round"/>
<path d="M13 8.44295C7.45299 8.44295 7.65474 6.44809 7.45299 2C6.79437 5.93098 7.45299 8.44295 2 8.44295C5.92648 8.67027 7.45299 9.48993 7.45299 14C7.45299 9.48993 9.2894 8.61383 13 8.44295Z" stroke="#48D0E8" stroke-width="4" stroke-linecap="round" stroke-linejoin="round"/>
<path d="M29 11.6846C26.9829 11.6846 27.0563 10.8534 26.9829 9C26.7434 10.6379 26.9829 11.6846 25 11.6846C26.4278 11.7793 26.9829 12.1208 26.9829 14C26.9829 12.1208 27.6507 11.7558 29 11.6846Z" stroke="#8BF9D2" stroke-width="4" stroke-linecap="round" stroke-linejoin="round"/>
</svg>
